<svg fill="none" height="24" viewBox="0 0 24 24" width="24" xmlns="http://www.w3.org/2000/svg"><path clip-rule="evenodd" d="m7 6.5h2c.27614 0 .5.22386.5.5v2c0 .27614-.22386.5-.5.5h-2c-.27614 0-.5-.22386-.5-.5v-2c0-.27614.22386-.5.5-.5zm-2 .5c0-1.10457.89543-2 2-2h2c1.1046 0 2 .89543 2 2v2c0 1.1046-.8954 2-2 2h-2c-1.10457 0-2-.8954-2-2zm2 7.5h2c.27614 0 .5.2239.5.5v2c0 .2761-.22386.5-.5.5h-2c-.27614 0-.5-.2239-.5-.5v-2c0-.2761.22386-.5.5-.5zm-2 .5c0-1.1046.89543-2 2-2h2c1.1046 0 2 .8954 2 2v2c0 1.1046-.8954 2-2 2h-2c-1.10457 0-2-.8954-2-2zm12-8.5h-2c-.2761 0-.5.22386-.5.5v2c0 .27614.2239.5.5.5h2c.2761 0 .5-.22386.5-.5v-2c0-.27614-.2239-.5-.5-.5zm-2-1.5c-1.1046 0-2 .89543-2 2v2c0 1.1046.8954 2 2 2h2c1.1046 0 2-.8954 2-2v-2c0-1.10457-.8954-2-2-2zm0 9.5h2c.2761 0 .5.2239.5.5v2c0 .2761-.2239.5-.5.5h-2c-.2761 0-.5-.2239-.5-.5v-2c0-.2761.2239-.5.5-.5zm-2 .5c0-1.1046.8954-2 2-2h2c1.1046 0 2 .8954 2 2v2c0 1.1046-.8954 2-2 2h-2c-1.1046 0-2-.8954-2-2z" fill="#2b2b2b" fill-rule="evenodd"/></svg>